/* XPM */
static char *_08999ca9ff24179c494e183831ffc0fSc1V9MicvzPZYa3p[] = {
/* columns rows colors chars-per-pixel */
"48 48 174 2 ",
"   c #118218",
".  c #108217",
"X  c #167D1C",
"o  c #415342",
"O  c #4B494B",
"+  c #11831A",
"@  c #12861D",
"#  c #12871E",
"$  c #11851B",
"%  c #11841B",
"&  c #118319",
"*  c #11841A",
"=  c #1B7F22",
"-  c #1F7E25",
";  c #15851F",
":  c #168221",
">  c #415443",
",  c #108317",
"<  c #118117",
"1  c #128920",
"2  c #149C36",
"3  c #149D37",
"4  c #159D37",
"5  c #13922A",
"6  c #108216",
"7  c #128F26",
"8  c #149C37",
"9  c #159C37",
"0  c #169C37",
"q  c #159934",
"w  c #11861C",
"e  c #11891F",
"r  c #128D24",
"t  c #128219",
"y  c #4B714E",
"u  c #606D62",
"i  c #259240",
"p  c #189738",
"a  c #415847",
"s  c #4B494A",
"d  c #1E7623",
"f  c #1C7922",
"g  c #138720",
"h  c #12881F",
"j  c #188B2A",
"k  c #289244",
"l  c #289345",
"z  c #278A39",
"x  c #247C29",
"c  c #268737",
"v  c #289344",
"b  c #1B9B3D",
"n  c #169E3A",
"m  c #179A38",
"M  c #1C7B26",
"N  c #1F7724",
"B  c #277F2C",
"V  c #27802D",
"C  c #247C2A",
"Z  c #258230",
"A  c #239641",
"S  c #1F983F",
"D  c #268635",
"F  c #247D2A",
"G  c #267C2B",
"H  c #566E58",
"J  c #676B69",
"K  c #368A4D",
"L  c #2A8D44",
"P  c #445649",
"I  c #4A494A",
"U  c #484C48",
"Y  c #3F5A45",
"T  c #189739",
"R  c #149E37",
"E  c #139E37",
"W  c #2B9045",
"Q  c #636D66",
"!  c #656B67",
"~  c #656C67",
"^  c #656B66",
"/  c #656A65",
"(  c #626D65",
")  c #299245",
"_  c #13A039",
"`  c #149F39",
"'  c #1A973B",
"]  c #405845",
"[  c #4E524E",
"{  c #717671",
"}  c #727873",
"|  c #666B66",
" . c #666B67",
".. c #4C7B59",
"X. c #159F39",
"o. c #14A039",
"O. c #3E8451",
"+. c #686968",
"@. c DimGray",
"#. c #636964",
"$. c #4E504F",
"%. c gray29",
"&. c #46564A",
"*. c #348E4C",
"=. c #31934B",
"-. c #2C9047",
";. c #3E8551",
":. c #686A68",
">. c #676A68",
",. c #3C8650",
"<. c #2D9047",
"1. c #308847",
"2. c #465349",
"3. c #515051",
"4. c #767576",
"5. c #777777",
"6. c #6A6A6A",
"7. c #6A686A",
"8. c #57755F",
"9. c #2E8F48",
"0. c #2D8F47",
"q. c #676667",
"w. c gray31",
"e. c #494949",
"r. c #515252",
"t. c #747775",
"y. c #686B68",
"u. c #646765",
"i. c #4E4E4E",
"p. c gray46",
"a. c gray40",
"s. c gray32",
"d. c #767676",
"f. c gray47",
"g. c #6F6F6F",
"h. c gray42",
"j. c #505050",
"k. c gray44",
"l. c #6C6C6C",
"z. c #7B7B7B",
"x. c #646464",
"c. c gray39",
"v. c gray35",
"b. c gray34",
"n. c #626262",
"m. c gray36",
"M. c #565656",
"N. c #5A5A5A",
"B. c #656565",
"V. c #5B5B5B",
"C. c #7C7C7C",
"Z. c #717171",
"A. c #606060",
"S. c #797979",
"D. c #4C4C4C",
"F. c #4B4B4B",
"G. c gray43",
"H. c gray38",
"J. c gray30",
"K. c #6D6D6D",
"L. c #515151",
"P. c #676767",
"I. c gray48",
"U. c gray33",
"Y. c #555555",
"T. c #535353",
"R. c #686868",
"E. c #727272",
"W. c #5F5F5F",
"Q. c gray37",
"!. c #5D5D5D",
"~. c gray45",
"^. c #747474",
"/. c white",
/* pixels */
"                                                                                    . . . X o O ",
"          + @ # # $   % # # # # # # # # # # @ &         & @ # # # # # # # # *       = - ; : > O ",
", ,     < 1 2 3 4 5 6 7 4 8 8 8 8 8 9 9 0 0 q w . . . 6 e 2 9 0 0 0 0 0 9 3 r 6 . t y u i p a s ",
"d f g h h j k l l z x c l v v v v v v b n n m M N B V C Z k A n n n n n S l D x F G H J K L P I ",
"U Y T R E W Q ! ~ ^ / ^ ~ ~ ~ ~ ~ ! ( ) _ ` ' ] [ { } | /  ...n X.X.X.o.O. .^ / / / +.@. .#.$.%.",
"I &.*.=.-.;.:.@.@.@.@.@.@.@.@.@.@.@.>.,.-.<.1.2.3.4.5.6.@.7.8.9.0.0.0.-...7.@.@.@.@.@.@.@.q.w.%.",
"e.r.t.t.y.>.@.@.@.@.@.@.@.@.@.@.@.@.@.>.>.>.u.i.3.p.5.6.@.@.+.>.>.>.>.>.+.@.@.@.@.@.@.@.@.a.w.%.",
"e.s.d.f.g.g.g.g.g.g.g.g.g.g.g.g.g.g.g.g.g.g.h.w.j.p.f.k.g.g.g.g.g.g.g.g.g.g.g.g.g.g.g.g.g.l.j.%.",
"e.s.5.z.z.z.z.z.z.z.z.z.z.z.z.z.z.z.z.z.z.z.d.j.j.d.z.z.z.z.z.z.z.z.z.z.z.z.z.z.z.z.z.z.z.5.s.e.",
"%.w.x.a.a.a.a.a.a.a.a.a.a.a.a.a.a.a.a.a.a.a.c.i.i.c.a.a.a.a.a.a.a.a.a.a.a.a.a.a.a.a.a.a.a.x.w.%.",
"%.e.e.e.e.e.e.e.e.e.e.e.%.e.e.e.e.e.e.e.e.e.e.e.e.e.e.e.e.e.e.e.e.e.e.%.e.e.e.e.e.e.e.e.e.e.e.%.",
"v.v.v.v.v.v.v.v.v.v.v.s.%.b.n.m.v.v.v.v.v.v.v.v.v.v.v.v.v.v.v.v.v.v.s.%.M.n.m.v.v.v.v.v.v.v.v.v.",
"@.@.@.@.@.@.@.@.@.@.6.N.e.B.z.k.@.@.@.@.@.@.@.@.@.@.@.@.@.@.@.@.@.6.V.e.c.C.Z.@.@.@.@.@.@.@.@.@.",
"@.@.@.@.@.@.@.@.@.@.@.N.e.B.z.g.@.@.@.@.@.@.@.@.@.@.@.@.@.@.@.@.@.6.V.e.c.z.k.@.@.@.@.@.@.@.@.@.",
"@.@.@.@.@.@.@.@.@.@.@.N.e.B.z.g.@.@.@.@.@.@.@.@.@.@.@.@.@.@.@.@.@.6.V.e.c.z.k.@.@.@.@.@.@.@.@.@.",
"@.@.@.@.@.@.@.@.@.@.@.N.e.B.z.g.@.@.@.@.@.@.@.@.@.@.@.@.@.@.@.@.@.6.V.e.c.z.k.@.@.@.@.@.@.@.@.@.",
"@.@.@.@.@.@.@.@.@.@.6.N.e.B.z.k.@.@.@.@.@.@.@.@.@.@.@.@.@.@.@.@.@.6.V.e.c.z.k.@.@.@.@.@.@.@.@.@.",
"p.p.p.p.p.p.p.p.p.p.d.A.e.B.z.5.p.p.p.p.p.p.p.p.p.p.p.p.p.p.p.p.p.d.n.e.c.z.5.p.p.p.p.p.p.p.p.p.",
"S.S.S.S.S.S.S.S.S.S.S.n.e.x.S.S.S.S.S.S.S.S.S.S.S.S.S.S.S.S.S.S.S.S.x.e.n.S.S.S.S.S.S.S.S.S.S.S.",
"M.M.M.M.M.M.M.M.M.M.M.j.%.j.M.M.M.M.M.M.M.M.M.M.M.M.M.M.M.M.M.M.M.M.j.%.j.M.M.M.M.M.M.M.M.M.M.M.",
"e.%.D.D.F.F.F.F.F.F.F.D.D.D.F.F.F.F.F.F.F.F.F.%.%.D.D.F.F.F.F.F.F.F.D.D.D.F.F.F.F.F.F.F.F.F.%.e.",
"%.j.G.G.x.c.c.c.c.c.c.c.c.c.c.c.c.c.c.c.c.c.H.J.w.K.G.x.c.c.c.c.c.c.c.c.c.c.c.c.c.c.c.c.c.H.i.%.",
"e.s.5.5.6.@.@.@.@.@.@.@.@.@.@.@.@.@.@.@.@.6.a.i.L.d.f.6.@.@.@.@.@.@.@.@.@.@.@.@.@.@.@.@.6.P.w.%.",
"e.s.d.5.6.@.@.@.@.@.@.@.@.@.@.@.@.@.@.@.@.@.a.i.j.p.5.6.@.@.@.@.@.@.@.@.@.@.@.@.@.@.@.@.@.P.w.%.",
"e.s.d.5.6.@.@.@.@.@.@.@.@.@.@.@.@.@.@.@.@.@.a.i.j.p.5.6.@.@.@.@.@.@.@.@.@.@.@.@.@.@.@.@.@.P.w.%.",
"e.s.d.d.6.@.@.@.@.@.@.@.@.@.@.@.@.@.@.@.@.@.a.i.j.p.5.6.@.@.@.@.@.@.@.@.@.@.@.@.@.@.@.@.@.a.w.%.",
"e.s.d.5.K.l.l.l.l.l.l.l.l.l.l.l.l.l.l.l.l.l.@.i.j.p.f.K.l.l.l.l.l.l.l.l.l.l.l.l.l.l.l.l.l.6.j.%.",
"e.s.5.z.I.I.I.I.I.I.I.I.I.I.I.I.I.I.I.I.I.I.p.j.j.d.z.I.I.I.I.I.I.I.I.I.I.I.I.I.I.I.I.I.I.d.s.e.",
"%.j.h.G.G.G.G.G.G.G.G.G.G.G.G.G.G.G.G.G.G.G.h.w.w.h.G.G.G.G.G.G.G.G.G.G.G.G.G.G.G.G.G.G.G.h.j.%.",
"e.%.F.F.F.F.F.F.F.F.F.F.D.F.F.F.F.F.F.F.F.F.F.%.%.F.F.F.F.F.F.F.F.F.F.D.F.F.F.F.F.F.F.F.F.F.%.e.",
"U.U.U.U.U.U.U.U.U.U.U.w.%.s.v.Y.T.U.U.U.U.U.U.U.U.U.U.U.U.U.U.U.U.U.w.%.s.v.M.T.U.U.U.U.U.U.U.U.",
"@.@.@.@.@.@.@.@.@.@.@.N.e.x.I.g.R.@.@.@.@.@.@.@.@.@.@.@.@.@.@.@.@.@.V.e.c.I.g.R.@.@.@.@.@.@.@.@.",
"@.@.@.@.@.@.@.@.@.@.6.N.e.B.z.g.@.@.@.@.@.@.@.@.@.@.@.@.@.@.@.@.@.6.V.e.c.z.k.@.@.@.@.@.@.@.@.@.",
"@.@.@.@.@.@.@.@.@.@.@.N.e.B.z.g.@.@.@.@.@.@.@.@.@.@.@.@.@.@.@.@.@.6.V.e.c.z.k.@.@.@.@.@.@.@.@.@.",
"@.@.@.@.@.@.@.@.@.@.@.N.e.B.z.g.@.@.@.@.@.@.@.@.@.@.@.@.@.@.@.@.@.6.V.e.c.z.k.@.@.@.@.@.@.@.@.@.",
"@.@.@.@.@.@.@.@.@.@.@.N.e.B.z.g.R.@.@.@.@.@.@.@.@.@.@.@.@.@.@.@.@.@.V.e.c.z.k.R.@.@.@.@.@.@.@.@.",
"E.E.E.E.E.E.E.E.E.E.E.W.e.B.z.p.E.E.E.E.E.E.E.E.E.E.E.E.E.E.E.E.E.E.A.e.c.z.p.E.E.E.E.E.E.E.E.E.",
"z.z.z.z.z.z.z.z.z.z.z.c.e.B.z.I.z.z.z.z.z.z.z.z.z.z.z.z.z.z.z.z.z.z.B.e.c.z.I.z.z.z.z.z.z.z.z.z.",
"Q.Q.Q.Q.Q.Q.Q.Q.Q.Q.Q.U.%.Y.Q.Q.Q.Q.Q.Q.Q.Q.Q.Q.Q.Q.Q.Q.Q.Q.Q.Q.Q.Q.Y.%.U.Q.Q.Q.Q.Q.Q.Q.Q.Q.Q.Q.",
"e.e.e.e.e.e.e.e.e.e.e.%.%.%.e.e.e.e.e.e.e.e.e.e.e.e.e.e.e.e.e.e.e.e.%.%.%.e.e.e.e.e.e.e.e.e.e.e.",
"%.w.P.P.W.Q.Q.Q.Q.Q.Q.Q.Q.Q.Q.Q.Q.Q.Q.Q.Q.W.m.J.i.P.R.W.Q.Q.Q.Q.Q.Q.Q.Q.Q.Q.Q.Q.Q.Q.Q.Q.Q.!.J.%.",
"e.s.5.5.6.@.6.6.6.6.6.6.6.6.6.6.6.6.6.6.6.6.a.i.L.d.f.h.@.6.6.6.6.6.6.6.6.6.6.6.6.6.6.6.6.P.w.%.",
"e.s.d.5.6.@.@.@.@.@.@.@.@.@.@.@.@.@.@.@.@.@.a.i.j.p.5.6.@.@.@.@.@.@.@.@.@.@.@.@.@.@.@.@.@.P.w.%.",
"e.s.d.5.6.@.@.@.@.@.@.@.@.@.@.@.@.@.@.@.@.@.a.i.j.p.5.6.@.@.@.@.@.@.@.@.@.@.@.@.@.@.@.@.@.P.w.%.",
"e.s.d.5.6.@.@.@.@.@.@.@.@.@.@.@.@.@.@.@.@.@.a.i.j.p.5.6.@.@.@.@.@.@.@.@.@.@.@.@.@.@.@.@.@.a.w.%.",
"e.s.d.5.h.6.6.6.6.6.6.6.6.6.6.6.6.6.6.6.6.h.P.i.j.p.5.h.6.6.6.6.6.6.6.6.6.6.6.6.6.6.6.6.h.R.w.%.",
"e.s.d.I.5.5.5.5.5.5.5.5.5.5.5.5.5.5.5.5.5.f.~.j.j.p.I.5.5.5.5.5.5.5.5.5.5.5.5.5.5.5.5.5.5.^.L.e.",
"e.s.d.I.I.I.I.I.I.I.I.I.I.I.I.I.I.I.I.I.I.z.p.j.j.p.I.I.I.I.I.I.I.I.I.I.I.I.I.I.I.I.I.I.I.d.s.e."
};
