/* XPM */
static char *_0346_d98161275a39821682deb7a769c7f8c86c65461e8b6a120c19153b84987c09f3[] = {
/* columns rows colors chars-per-pixel */
"48 48 138 2 ",
"   c #1F0604",
".  c #1D0A05",
"X  c #1E0B08",
"o  c #1B1109",
"O  c #230606",
"+  c #2E0705",
"@  c #240C04",
"#  c #2A0B05",
"$  c #210708",
"%  c #240D0B",
"&  c #2A0B0A",
"*  c #310605",
"=  c #330C05",
"-  c #3A0E07",
";  c #360C0A",
":  c #3D0E0B",
">  c #2A1104",
",  c #251109",
"<  c #2F180A",
"1  c #331105",
"2  c #391201",
"3  c #34130A",
"4  c #3B120C",
"5  c #3D1211",
"6  c #3D1B16",
"7  c #3F1C18",
"8  c #450D07",
"9  c #4E0E05",
"0  c #440D0C",
"q  c #4B0E0C",
"w  c #550F07",
"e  c #540E0D",
"r  c #431107",
"t  c #491006",
"y  c #42130D",
"u  c #4C130D",
"i  c #4C190E",
"p  c #54130D",
"a  c #5A120D",
"s  c #51180F",
"d  c #470F10",
"f  c #4B0E12",
"g  c #530E13",
"h  c #5A0E13",
"j  c #550D18",
"k  c #451511",
"l  c #4C1412",
"z  c #441914",
"x  c #4C1913",
"c  c #461518",
"v  c #441B19",
"b  c #4A1B18",
"n  c #531514",
"m  c #5B1415",
"M  c #531A14",
"N  c #5B1A15",
"B  c #551619",
"V  c #5C151A",
"C  c #541B1A",
"Z  c #5B1A1B",
"A  c #630D0E",
"S  c #690D18",
"D  c #621515",
"F  c #691317",
"G  c #631A16",
"H  c #691917",
"J  c #63151B",
"K  c #6A161B",
"L  c #631A1B",
"P  c #6B1B1B",
"I  c #731716",
"U  c #751B16",
"Y  c #7B1B16",
"T  c #76161C",
"R  c #7E1718",
"E  c #741B1C",
"W  c #7C1C1B",
"Q  c #522216",
"!  c #5A2216",
"~  c #53211C",
"^  c #5B211C",
"/  c #64211C",
"(  c #6D211D",
")  c #762117",
"_  c #7C2116",
"`  c #74221F",
"'  c #7B211D",
"]  c #561B22",
"[  c #5C1C22",
"{  c #6E1721",
"}  c #641C22",
"|  c #6B1921",
" . c #751522",
".. c #721C23",
"X. c #7D1C20",
"o. c #552221",
"O. c #5F2122",
"+. c #652423",
"@. c #6A2422",
"#. c #732223",
"$. c #7C2321",
"%. c #811617",
"&. c #811A16",
"*. c #83161C",
"=. c #831B1C",
"-. c #8B1C1E",
";. c #84221F",
":. c #8A211E",
">. c #91211B",
",. c #841D22",
"<. c #8B1D23",
"1. c #851D28",
"2. c #8C1E28",
"3. c #931D24",
"4. c #991D26",
"5. c #931E2A",
"6. c #9A1F2A",
"7. c #842323",
"8. c #8B2223",
"9. c #852921",
"0. c #892822",
"q. c #842229",
"w. c #8D2329",
"e. c #922225",
"r. c #992226",
"t. c #962A27",
"y. c #982827",
"u. c #94232A",
"i. c #9B232C",
"p. c #97292A",
"a. c #9A292B",
"s. c #9A2530",
"d. c #9D2A33",
"f. c #A2242F",
"g. c #A8262E",
"h. c #A42431",
"j. c #A32933",
"k. c #A82930",
/* pixels */
"# J M D Z m D N $ n m N m N J q # Z m n L n J N O f M N m Z K 0 # V N m G l A N X g J n B m H n ",
"G j.8.e.8.e.-.y.b w.e.-.9.w.u.( D j.-.8.5.w.-.y.b <.e.:.:.e.u.( P k.:.w.4.w.-.a.z u.a.&.e.w.w.7.",
"p 4.U ' W 1.U 8.1 W -.Y $.7.=.! 9 u.Y ' ,.,.U 8.1 W -.W $.,.,.Q p e.Y ' ,.7.I 8.# ,.7.U <.W ) ( ",
"4 F Z Z Z J Z G # J F H Z Z { l - K N Z Z V Z H * J H K Z m ..y 4 K Z B Z V B P @ J H J | V } n ",
"z l n l @ d B i l l l n - & L l k x n l @ 0 B i k l p n 4 # V u z i l q @ f n u k q l n 3 * J q ",
"u.7.<.p.e 2.u.8.i.7.7.u.P p d.<.w.w.<.s.u 5.u.w.i.7.7.i.( n a.3.u.w.8.i.u 5.u.w.u.<.w.p.G m f.w.",
"=.Y *.w.8 1.1.&.,.U W 8./ t u.W &.W &.w.r 2.,.=.=.E W <.+.i u.W =.W =.w.r 2.$.&.&.W ' 7.G g w.' ",
"L N G C & [ C G Z L J F c * ..M Z G Z Z % V C G Z L F S v * { Z Z G Z B X J ~ D G H m V c ; +.m ",
"@ B n n V l D n   f s n p n V 0 @ V x p C f m l . 0 s M p M J - & M n i Z i h M . g m s i B m k ",
"L j.<.8.3.w.<.y.M w.e.-.8.e.5.` D j.7.e.e.e.w.a.B w.r.8.3.w.i.P L f.<.:.5.8.<.p.c 5.r.:.3.e.5.0.",
"p 6.W ' <.8.Y 8.- ,.-.&.7.,.,.N p i.Y W ,.<.E w.1 W -._ ;.1.3.N n r.W _ 2.8.I w.# ,.7.Y -.<.W ..",
": K G Z C J N G # m G G Z B K k 0 K Z N Z J Z H & B F N Z M K y 0 K L N [ J V H @ m Z Z L Z L n ",
"z l M l @ 0 M i k k i n 3 @ Z l k x i u @ q C l l k l x 4 @ Z i z i x t % q n i z l u l & 1 C y ",
"u.7.<.d.t 5.u.8.i.-.8.i.P a j.3.u.7.<.i.s 2.u.<.i.7.8.u.E n h.3.e.;.w.r.l w.u.:.i.3.w.a.G D f.w.",
"=.Y =.w.r 2.,.&.,.W -.<./ q y.=.-.W &.w.t 7.,.W =.E *.<.@.t 5.&.;.Y =.8.d 1.7.&.=.&.&.w.Z e 2.,.",
"L J Z V @ J ~ H Z Z J J 6 # ..C L Z N C & V ^ L Z ^ H V c & ..C G G [ B % J ~ D ^ L B G f 4 } V ",
"@ n n u Z y h l $ f u i p B B 0 @ Z z p M f m l . f l s p n V : # M n s V y h l o f n t u n h i ",
"G f.<.8.5.u.<.p.l u.u.w.e.5.5.@.N h.=.<.w.w.8.p.l <.e.w.w.e.6.P G f.1.:.5.w.2.p.y 5.a.e.u.u.<.7.",
"p i.W $.<.8.U 8.1 ,.<.Y W =.<./ q i.U ;.1.8.U 8.4 X.-.W W ,.<.^ p r.W ;.<.8.U 8.1 ,.8.U -.,.' #.",
": K L B Z L m K & B J H Z C K 4 : { G Z Z J Z J & V K G ^ B | y y P } N [ J V H % J D Z } Z Z M ",
"k u l l @ l M x k u i n 4 # Z 0 y x s u @ 0 B l k k i n 4 @ Z r z r x t $ 8 B i y l l x 3 3 m 0 ",
"e.9.<.i.t <.u.8.i.<.8.4.H p j.r.u.9.<.u.p <.u.8.i.8.;.4.P a j.4.t.;.2.i.u w.s.:.u.8.8.u.J m h.u.",
"*.W W w.8 1.W Y %.Y ;.u./ t u.%.=.W =.0.8 ,.7.W *.Y =.e.( p e.%.-.Y ,.8.y <.7.Y %.&.;.w.G g w.&.",
"G G G B % | ~ P ^ Z F F v = #.M L Z F C # J ] H Z L F D 6 # ..^ L N [ N , J ~ F N P Z L f 5 O.B ",
"@ B p u B l h x $ j l i p n B 5 $ Z x w B q n n $ f x x q B V : # n l t B l h u X h s i q B n x ",
"L j.,.8.5.u.-.p.l w.w.w.u.u.5.P G k.,.:.u.e.2.a.l w.w.w.8.r.5.P L d.8.8.5.u.<.p.4 2.y.e.e.u.2.7.",
"p i.Y ' <.<.I e.4 $.&.I W <.2./ q r.Y W 1.,.T 8.4 ,.-.Y W <.<.^ e 4.Y ' <.8.I w.3 7.,.R *.,.,.$.",
"r | Z Z Z } Z H & B G G Z V { z 0 E } ! [ H Z P & B H L ] C | y y | } Z Z } Z P > Z L G L Z L B ",
"y x l q . d n i 0 y l B 3 # C : 4 y l t @ 8 n y k y y n 3 # N 0 y y l q @ 0 l r y q u n 4 # B r ",
"w.8.8.i.t u.u.8.g.<.8.u.P p j.3.u.0.5.y.n w.s.8.h.8.9.5.P a d.4.p.w.e.a.t u.i.w.i.3.w.w.F m i.e.",
"&.W =.w.r w.$.=.-.W =.e./ p d.W *._ &.9.f =.,.Y *.Y =.u.@.p 5.R &.W W w.r 1.$.&.%.&.;.w.H n w.=.",
"N G Z C % J b F M ^ J J v * ..M L N J M & B ] H Z Z D D v # | M Z G G B % J ~ H Z ^ B J c ; +.N ",
"& Z m p Z l D N . g N s M m K : & D M a Z p V N $ f D Q p m | 4 # J M m Z n m N . j m M M N m i ",
"H j.:.8.4.u.-.i.l w.e.-.e.e.e.E G k.,.>.5.e.<.u.n 7.e.8.3.w.5.P P j.;.3.e.u.*.a.z 5.e.:.3.e.e.7.",
"p u.Y ' ,.7.U 8.- $.7.%.7.$.7.G q 4.U _ ,.;.T 8.- #.<.W 7.$.<.! p 6.Y ' ,.<.I 8.& ,.7.W <.8.X.' ",
"4 K N B C L C K # n m D Z l K k - P Z N ] N Z H & n F N Z c K y : K Z N C L B H , m m m J n m n ",
"z l l t @ q M x c x x M 3 = L x z x l t % 0 B i z x n x 4 > } l x i M u @ f B l c M M l 3 > Z x ",
"u.8.w.i.u u.u.w.i.-.8.u.P A h.<.u.0.5.y.g <.s.8.u.<.3.u.E p h.<.u.9.3.d.p 2.i.8.i.-.w.u.L a h.8.",
"=.W =.8.r 2.$.=.<.Y W u.L e i.=.*.' *.9.0 =.q.=.*.W *.7.@.t y.=.*.W *.q.q 1.7.=.<.W ,.,.P n u.' ",
"Z N Z B @ V ] V V ~ B J k # | x Z N V M & B C D Z ~ F J c . | B Z N G b @ V C m B G Z n l + O.m ",
"# N M a m n D n O l M s m B m y & G M a Z p m M O n M s m C B y # m M m D l D p . h m M i N m i ",
"G f.-.8.4.u.<.y.n u.e.-.e.e.3.` D g.,.>.5.e.<.a.n <.e.8.-.4.i.E G f.-.8.4.u.-.a.y 5.e.8.3.e.5.8.",
"s u.Y ` =.7.E 9.# $.,.Y $.X.,.! t u.E _ 7.7.E w.< E ;.' ' ,.2.N s y.Y #.,.7.U 9.> ,.7.' -.1.E ' ",
"4 H Z B C V Z G @ V K m ] B J k : P Z M ] m B D % l J Z B n { y : H Z C C V B G , m m Z J Z V B ",
"l l n h # f V p l n n m 4 # J n x n n w + q V s f B p h y # J l l l n m # g Z n l n n n ; * m u ",
"u.7.8.u.t w.u.w.6.7.<.u.( m d.3.w.9.2.y.l 8.u.w.6.u.8.5.#.M s.e.w.7.8.i.t w.u.w.r.-.8.u./ m a.w.",
"' U W 0.2 ,.$.U Y U W 1.^ 8 w.Y W ) W 9.0 W $.W Y ) Y ,./ r 8.Y Y U W 7.2 X.` U Y Y W 9.G t 7.) ",
"..T @.P 3 ..+.X.L ..W T ~ : 7.G ..P  ./ 5 K +.T / | Y ..b 0 q.P ( E #.| 3  .@.W L E P ..J f #.P "
};
