/* XPM */
static char *b066ea0538754d118fc19a1cacc6bbf78Ad5MuEKjJXqSU0u[] = {
/* columns rows colors chars-per-pixel */
"48 48 60 1 ",
"  c #261715",
". c #271715",
"X c #271716",
"o c #281916",
"O c #281817",
"+ c #291917",
"@ c #2A1917",
"# c #281A18",
"$ c #291A19",
"% c #2B1A18",
"& c #2A1C1B",
"* c #2D1D1B",
"= c #2E1D1B",
"- c #2D1D1C",
"; c #2E1E1D",
": c #2F201F",
"> c #30201F",
", c #302121",
"< c #312221",
"1 c #332220",
"2 c #332221",
"3 c #312222",
"4 c #332322",
"5 c #332323",
"6 c #352524",
"7 c #342525",
"8 c #362524",
"9 c #372726",
"0 c #362727",
"q c #372727",
"w c #382726",
"e c #392827",
"r c #3A2929",
"t c #392A2A",
"y c #3B2B2B",
"u c #3D2C2B",
"i c #3E2D2C",
"p c #3F2F2F",
"a c #41302F",
"s c #413031",
"d c #413131",
"f c #433333",
"g c #443231",
"h c #443232",
"j c #463333",
"k c #453434",
"l c #463535",
"z c #473535",
"x c #463536",
"c c #463636",
"v c #473737",
"b c #483637",
"n c #4A3738",
"m c #493838",
"M c #4A3839",
"N c #4B3839",
"B c #4D3A3B",
"V c #4D3B3B",
"C c #4E3C3D",
"Z c #503E3E",
/* pixels */
"++++++++O+>aOO++++++++++++>9++++++++++++++>2#O++",
"++++++++O#;uOO++++++++++++;9+++++++++++++X>q#+++",
"++++++++#O;iO+++++++++++++;e#+++++++++++++>q+++#",
"++++++++OO-iO+++++++++++++;9#++++++++++++#>8+++O",
"++++++++#O;i+++++++++++++#:0X++++++++++%#+>q++O%",
"+++#++++#O;u+++++++++++++O:0O+++++++++##++>qX##O",
"##########>i##+#++++####XO2tO#O+###+##+#+#>9+###",
"cccMccccccnZbbcbbbbbvcccccMCccvcccmbccvmccBVcccc",
"22wj22222222222222wa2222>22>222>>>uu:>>>22>2>22>",
"#+;i+#%#%%%##%%%++;q+%##%#%%%%#%%+88*#%@%%%%%%@%",
"++;i++++++++++++++:q++++#+++++%##+>q++++++++%#++",
"++;i++++++++++++++>w++++#@+++++++*>>+++++++++%++",
"++;uX#++++++++++++;e+++++++++++++O>8++++++++++++",
"++;i#O++++++++++++;w+++++++++++++X>8++++++++@O++",
"++;iO+++++++++++++>q+++++++++++++#2>++++++++#@@#",
"++;i++++++++++++++;q++++++++++++#+q2O+++++++O%OO",
"#O;i++##+#+$++##++;qO%O###O#O+++#%22O+++++++%##%",
"OO;iO+O#OX+O++O#++;eO##O#O$$O##O##2wX+##OOOO%#O#",
"&&2d;+*##&#;#;*###>u#&###%##>#####qu#&&&&&#>####",
"jdfNdfsjfdcbjdsjcdcMfffjffnnsfffsabbdfdffddndffj",
";****===;%2d***=;*********;u#>--==**===*;#wu#>**",
"$+#%%#%###;i+%%##+%%%%%%%@>q%%%#%#%#%%@+%#>q+@@+",
"++++++++O#;i++++#+++++++++;q++O%++++++++#@2>O+++",
"+++++++++#;i++++++++++++++>qO@OO++++++++#O>w++++",
"++++++++++;iOO++++++++++++>9++++++++++++++44O+++",
"++++++++O#;i+++++++++++++#*9+++++++++++++#44O+++",
"++++++++##;i+++++++++++++.>e#+++++++++++++24X+++",
"++++++++XX;i++++++++++O#+#>wX+++++++++++++22O+++",
"#$OO++++$#;i+X$X++++OOO$+#;q++++XO#O++##+X22#XOO",
"XOOOOOOOOO%i#X#$XOOOX$OO#+;e+#o.#+OO#XX#+X24X+OO",
"2322222222wb222232>22322>2ed4>>>>232234433ui>422",
"jcNCcffcfjbbcckcfjBBccfkkkbmvkkccfCMjkkkfcMMcjcb",
"+#wu@*@=#%%%;%;@##qe##@*%;+;%%;+;#u2@%;%%;%%;+;+",
"#+>t+++@#%%%+#%#++>e++++#%+#%%+$#Xq2++###+%%+$%#",
"OO2rO+++#+++O+#+#+29+++++++#++++OOq;++++#+++O@#+",
"+O2rO+++%#++%#O%$+22#++++++O++++OOq>+++++%++%#O#",
"OO2rO+++++++O++++#;2X++++++++++++#q;+#++++++O+++",
"+O2rO+++++++++++++28O+++++++++++OXw2++++++++++++",
"+O>wO+++++++++++++22O++++++++++++Ow>++++++++++++",
"+O2uO+++++++++++++42O++#+++++++++Ow;++++++++++++",
"+O2tOOX#+++X#X#+OX>2##O+X#+X++++XX92+++X++OO+##+",
"OO2wXXOXOOXX+XOOX 28XXXX+XXXXXXXX#92XXXXOOXOXXXX",
"qqdcqqqqw8wqqwq8qqddqeqqqqeqq4qqq4ju8qqqw2wwqqqq",
"dadjaajjjdjCsdjdjjjjaddddacCddjjdpdcdajjjjbMajda",
"+%%%%%%%%%;i+#%%%%%%%%@@+#>t+%*#*+#%#%*%++2q#+%%",
"++++++#%#O;iX###++#%#@#+#+>w++++$#+#++++##22X##%",
"+++++++OO#;u+@%+++++#++++O;r++++++++++++++2qO+#+",
"+++++++%O+*a+O+#+++++++++O;w++++++++++++++22O+%+"
};

