/* XPM */
static char *f925c7634c354b0fa9f8d42b953fd871l69dTvSCuWwI7yiI[] = {
/* columns rows colors chars-per-pixel */
"48 48 99 2 ",
"   c #393939",
".  c #3A393A",
"X  c #3C3C3C",
"o  c gray24",
"O  c #3F3F3F",
"+  c #176D16",
"@  c #1B651B",
"#  c #1C661B",
"$  c #1A691A",
"%  c #1A6F1A",
"&  c #1A6B1D",
"*  c #157213",
"=  c #157314",
"-  c #167414",
";  c #167616",
":  c #167717",
">  c #177719",
",  c #187219",
"<  c #167818",
"1  c #177E1B",
"2  c #324233",
"3  c #324737",
"4  c #314935",
"5  c #364239",
"6  c #36453A",
"7  c #3D413D",
"8  c #3C5F3D",
"9  c #1F6C20",
"0  c #1F6D20",
"q  c #1A7C20",
"w  c #206C20",
"e  c #217628",
"r  c #227A2B",
"t  c #267F37",
"y  c #287837",
"u  c #277F38",
"i  c #2B7E3B",
"p  c #2C7A3C",
"a  c #30753F",
"s  c #403F40",
"d  c #3D6947",
"f  c #327340",
"g  c #327440",
"h  c #404141",
"j  c #414141",
"k  c #434343",
"l  c #444444",
"z  c gray28",
"x  c #484848",
"c  c #4B4B4B",
"v  c #4C4C4C",
"b  c gray30",
"n  c #455C46",
"m  c #4E5A4F",
"M  c #505050",
"N  c #515151",
"B  c #535353",
"V  c #505651",
"C  c #515452",
"Z  c #545354",
"A  c #545755",
"S  c #575557",
"D  c #565656",
"F  c gray34",
"G  c #535853",
"H  c #525954",
"J  c #555855",
"K  c #585858",
"L  c #5B5B5B",
"P  c gray36",
"I  c gray37",
"U  c #5F5F5F",
"Y  c #46634C",
"T  c #5E635E",
"R  c #5F6560",
"E  c #606060",
"W  c gray38",
"Q  c gray39",
"!  c #616462",
"~  c #646464",
"^  c #676767",
"/  c #686868",
"(  c #188320",
")  c #1A8B27",
"_  c #1B882B",
"`  c #198E2A",
"'  c #1A8F2A",
"]  c #1C882D",
"[  c #1D8D2F",
"{  c #1A912B",
"}  c #1A932B",
"|  c #1B902C",
" . c #1E8A30",
".. c #218331",
"X. c #218732",
"o. c #238334",
"O. c #268137",
"+. c #238434",
"@. c #29843A",
/* pixels */
"  j W / / ~ / / ~ / / / ~ / ~ / / / ~ / / ~ ~ o j W / / / ~ / / / ~ / / / ~ / ~ / / / ~ ~ ~ j   ",
"  j W ~ ~ ~ ~ ~ ~ ~ ~ ~ ~ ~ ~ ~ ~ ~ ~ ~ ~ / W j o W ~ ~ ~ ~ ~ ~ ~ Q ~ ~ ~ ~ ~ ~ ~ ~ ~ ~ / Q j   ",
"  o D K D K K D D K K D K K D K K D K K K ~ W o o B K D D K K D D K K D K K K D D K K K ~ Q j   ",
"  o B D D D D D D D D D D D D D D D D D K ~ W j o D D D D D D D D D D D D D D D D D D K ~ ~ j   ",
"  o B D D D D D D D D D D D D D D D D D D ~ W j o B D D D D D D D D D D D D D D D D D K Q Q j   ",
"  o D D D D D D D D D D D D D D D D D D D ~ W o o D D D D D D D D D D D D D D D D D D K ~ Q j   ",
"  o D D K D K D D K D D D K D K D D D D K ~ W j o B D D K D K D K K K K K K K K K K D K ~ ~ j   ",
"  o c c b c b b c b b b c b c b b b b b b D D o   c b c b c b b b c c c c c c b c c c c Z Z o   ",
"                                                                                                ",
"b c c b c b b c b c b j   j b b b b b b b b b b c b c b b c c b c c l   l c c b b c c b c c c c ",
"/ / / / / / / / / / / B   B / ~ ~ / ~ / ~ / ~ / / / / / / / / / / / B   M / / ~ / / ~ / / / / / ",
"U U U U U U U U U W / b   b W U W W U U W W U U U U U U U U U U Q ~ B   c E E U E W U E E E U R ",
"D D D D D D D D D U / B   c D D D D D D D D D D D D D D D D D D P / B   x D D D D D D D D D D D ",
"D D D D D D D D D K ~ B   c D D D D D D D D D D D D D D D D D D P / B   x D D D D D D D D D D D ",
"D D D D D D D D D U ~ b   c D D D D D D D D D D D D D D D D D D P / B   x D D D D D D D D D D D ",
"D D D D D D D D D U / B   z D D D D D D D D D D D D D D D D D D P ~ B   z K D D D D D D D D D D ",
"D K D K D D D D B U ~ B   c D D D D D D D D D D D D K D D K D D P ~ B   x D K D D K D D D D D K ",
"j j j j j j j z j j c j   j j j j j j j z j j j j j j j j j j j l x j   o j j j j j j j l j j j ",
"                            o     o o             o                     X X       X X   o       ",
"  j D U K U K U K U U K K U K U U K K U K U K o o K U K K U K U P P P U P K P P P K P P K K j   ",
"  j ~ / / / / / ~ / / / / / ~ / ~ ~ / / / / ~ j j W / / / / / / / / / / / / ~ / ~ / / / / ~ j   ",
"  o K K K K K K K K K K K K K K K K K K K ~ W o o D K K K K K K K K K K K K K D K K K K ~ ~ j   ",
"  o B D D D D D D D K D D D D D K D D D K ~ W j o B D D D D K D D D D D K D D D K D D D ~ W j   ",
"  o D D D D D D D D D D D D D D K D D D K ~ W j o B D D D D D D D D D D D D D D D D D K ~ ~ j   ",
"  o D D D D D D D D D D D D D D D D D D K ~ W j o B D D D D D D D D D D D D D D D D D D ~ ~ j   ",
"  o B D D D D D D D D D D D D D D D D D K ~ W j o B D D D D D D D D D D D D D D D D D D ~ ~ j   ",
"  o b B b B b B B b b B B B b B b B B B B K K o o b B B b B b B B M B B b B B M M B B B K P h   ",
"    o           o                         o o                                           X X     ",
"j z j z z z z j z j z o   j j z j z j z z z j z j z j z z z z j c j o   o z j z j z l l z l l z ",
"~ / ~ / ~ ~ ~ ~ / ~ ~ B   B ~ / ~ / ~ ~ ~ / ~ ~ ~ / ~ / ~ ~ ~ ~ ~ ~ Z   B ^ ~ ^ ~ ~ ~ ~ ~ ~ ~ ~ ",
"~ W W W W W ~ W W ~ ~ B   b W W ~ W ~ W W W ~ W ~ W W W W W ~ W ~ / A   c ~ W W ~ W ~ W W ~ W W ",
"D D D D K D D K D U / b   c K D D D D D D D D D D D D D K D D K E W B   z D D D D D D K D D D D ",
"D D D D D D D D D U / B   z D D D D D D D D D D D D D D D D D D P / B   x D D D D D D D D D D D ",
"D D D D D D D D D U ~ B   c D D D D D D D D D D D D D D D D D D P / B   x D D D D D D D D D D D ",
"D D D D D D D D D K / b   c K D D D D D D D D D D D D D D D D D U / B   x D D D D D D D D D D D ",
"D D D D D D D D D U / B   c D D D D D D D D D D D D D D D D D D U Q B   x S D D D D D D D D D D ",
"c z z z z z z z z c B j   o c z z z z z z z z z z z z z z z z z c v z   o z z z z z z x x z z z ",
"                                                                                                ",
"  o B B B B B B B B D B B D B B B B B B B B M o o M B B B B B B B B B B B B B B B B B B B B o   ",
"  j W / / / / / / ~ / / ~ / / ~ / / / / / / Q 7 s Q / / / / / / / / / / / / / / / / / / / Q j   ",
"  7 K P P P P P U K L U K U K U K U L P T ~ Q s o K K U K U L L P P P P P P P P K U P P ~ ! j   ",
"  o D D D D D D D D D D D J A A D D D D S Q W s o V D H J D D D D D D D D D D D D D G D ! ! j   ",
"  o B D D D D D D D D d O.t t t O.Y J K S ! Q s 5 y O.O.g H D D D D J D D D D D D G a O.@.i 6   ",
"  o V G D D G G G H D a { { { { { d D G H ! T 7 4 ] } } O.m J G H H H G A V A H D G O.{ { _ 4   ",
"  6 t p D n w w w e o. .{ { ` | ' X.o.w w w w # & _ { { [ +.+.o.+.+.+.+.e w r o.+...q ; : < $ @ ",
"  3 _ ..m 8 * * * 1 ' ' ` ` ` { ` { ' < - * ; * > _ ` { ` ` ' ' ` ` ` { 1 * ( } ` { < * * * * ; ",
"  2 , ; % % * * * - ; < ; > > ; ; ; ; ; * * * * * ; > ; ; > > > < ; > ; ; * ; ; > ; * * * * * * ",
"  2 + * * * * * * * * * * * * * * * * * * * * * * * * * * * * * * * * * * * * * * * * * * * * * "
};